<?xml version="1.0" encoding="UTF-8"?><svg id="Layer_1" xmlns="http://www.w3.org/2000/svg" viewBox="0 0 13.17 16.13"><defs><style>.cls-1{fill:#fff;}</style></defs><path class="cls-1" d="M2.89,11.57v1.95c-.14,.01-.21-.05-.21-.18V2.5h.22v2.17c.78-1.52,1.95-2.44,3.72-2.43,1.76,0,2.93,.91,3.68,2.45V2.63h.21V13.63c-.26,0-.53,.02-.79,0-.1-.01-.21-.12-.29-.2-.12-.12-.23-.25-.34-.38-1.05,.75-2.18,1.03-3.44,.72-1.25-.3-2.13-1.07-2.75-2.19h0ZM9.03,3.35c-.18-.12-.35-.25-.53-.36-.46-.3-.98-.48-1.52-.52-.66-.05-1.29,.05-1.9,.31-.42,.18-.81,.43-1.11,.76-.24,.25-.42,.56-.61,.85-.3,.47-.45,.98-.46,1.54v4.72c0,.13,.02,.27,.06,.39,.31,.84,.81,1.53,1.58,2.01,.9,.57,1.88,.73,2.91,.5,.53-.12,1.01-.34,1.46-.69-1.57-1.57-3.13-3.13-4.7-4.7,1.6-1.6,3.2-3.2,4.81-4.81h0Zm.05,9.38c.46-.39,.8-.84,1.03-1.37,.12-.27,.19-.54,.19-.84V5.95c0-.13-.01-.27-.03-.4-.12-.78-.48-1.44-1.04-2-.03,.03-.05,.05-.07,.07-1.49,1.48-2.99,2.97-4.49,4.45-.11,.11-.1,.17,0,.27,1.43,1.43,2.86,2.85,4.29,4.28l.11,.11h.01Zm1.21-1.15c-.28,.5-.62,.95-1.06,1.32l.45,.45s.06,.06,.08,.06h.52v-1.83h.01Z"/></svg>